<mxfile host="Electron" modified="2023-12-27T18:19:39.460Z" agent="Mozilla/5.0 (Windows NT 10.0; Win64; x64) AppleWebKit/537.36 (KHTML, like Gecko) draw.io/22.1.2 Chrome/114.0.5735.289 Electron/25.9.4 Safari/537.36" etag="Bnn_JaKzIswqm7phpasc" version="22.1.2" type="device">
  <diagram name="Page-1" id="5f0bae14-7c28-e335-631c-24af17079c00">
    <mxGraphModel dx="2963" dy="1709" grid="1" gridSize="10" guides="1" tooltips="1" connect="1" arrows="1" fold="1" page="1" pageScale="1" pageWidth="1100" pageHeight="850" background="none" math="0" shadow="0">
      <root>
        <mxCell id="0" />
        <mxCell id="1" parent="0" />
        <mxCell id="OmvGsxAvd5trjXdj3R8x-22" value="Task_H" style="verticalAlign=top;align=left;spacingTop=8;spacingLeft=2;spacingRight=12;shape=cube;size=10;direction=south;fontStyle=4;html=1;rounded=0;shadow=0;comic=0;labelBackgroundColor=none;strokeWidth=1;fontFamily=Verdana;fontSize=12;fillColor=#FF3333;" parent="1" vertex="1">
          <mxGeometry x="40" y="425" width="260" height="150" as="geometry" />
        </mxCell>
        <mxCell id="39150e848f15840c-1" value="HVAC" style="verticalAlign=top;align=left;spacingTop=8;spacingLeft=2;spacingRight=12;shape=cube;size=10;direction=south;fontStyle=4;html=1;rounded=0;shadow=0;comic=0;labelBackgroundColor=none;strokeWidth=1;fontFamily=Verdana;fontSize=12;fillColor=#B5739D;" parent="1" vertex="1">
          <mxGeometry x="540" y="10" width="1730" height="220" as="geometry" />
        </mxCell>
        <mxCell id="39150e848f15840c-3" value="GUI" style="verticalAlign=top;align=left;spacingTop=8;spacingLeft=2;spacingRight=12;shape=cube;size=10;direction=south;fontStyle=4;html=1;rounded=0;shadow=0;comic=0;labelBackgroundColor=none;strokeWidth=1;fontFamily=Verdana;fontSize=12;fillColor=#67AB9F;" parent="1" vertex="1">
          <mxGeometry x="410" y="425" width="260" height="145" as="geometry" />
        </mxCell>
        <mxCell id="OmvGsxAvd5trjXdj3R8x-14" style="edgeStyle=orthogonalEdgeStyle;rounded=0;orthogonalLoop=1;jettySize=auto;html=1;entryX=0;entryY=0;entryDx=0;entryDy=0;" parent="1" source="39150e848f15840c-4" target="39150e848f15840c-6" edge="1">
          <mxGeometry relative="1" as="geometry">
            <Array as="points">
              <mxPoint x="860" y="95" />
              <mxPoint x="860" y="203" />
            </Array>
          </mxGeometry>
        </mxCell>
        <mxCell id="39150e848f15840c-4" value="«interface»&lt;br&gt;&lt;b&gt;Get_HVAC_sts()&lt;/b&gt;;" style="html=1;rounded=0;shadow=0;comic=0;labelBackgroundColor=none;strokeWidth=1;fontFamily=Verdana;fontSize=12;align=center;" parent="1" vertex="1">
          <mxGeometry x="730" y="60" width="120" height="50" as="geometry" />
        </mxCell>
        <mxCell id="39150e848f15840c-5" value="HVAC" style="shape=component;align=left;spacingLeft=36;rounded=0;shadow=0;comic=0;labelBackgroundColor=none;strokeWidth=1;fontFamily=Verdana;fontSize=12;html=1;" parent="1" vertex="1">
          <mxGeometry x="880" y="50" width="120" height="60" as="geometry" />
        </mxCell>
        <mxCell id="39150e848f15840c-6" value="" style="ellipse;whiteSpace=wrap;html=1;rounded=0;shadow=0;comic=0;labelBackgroundColor=none;strokeWidth=1;fontFamily=Verdana;fontSize=12;align=center;" parent="1" vertex="1">
          <mxGeometry x="920" y="200" width="20" height="20" as="geometry" />
        </mxCell>
        <mxCell id="OmvGsxAvd5trjXdj3R8x-17" style="rounded=0;orthogonalLoop=1;jettySize=auto;html=1;entryX=0.5;entryY=1;entryDx=0;entryDy=0;dashed=1;endArrow=open;endFill=0;endSize=16;" parent="1" source="39150e848f15840c-10" target="OmvGsxAvd5trjXdj3R8x-9" edge="1">
          <mxGeometry relative="1" as="geometry" />
        </mxCell>
        <mxCell id="39150e848f15840c-10" value="GUI_App" style="shape=component;align=left;spacingLeft=36;rounded=0;shadow=0;comic=0;labelBackgroundColor=none;strokeWidth=1;fontFamily=Verdana;fontSize=12;html=1;" parent="1" vertex="1">
          <mxGeometry x="470" y="460" width="120" height="60" as="geometry" />
        </mxCell>
        <mxCell id="39150e848f15840c-11" style="edgeStyle=none;rounded=0;html=1;dashed=1;labelBackgroundColor=none;startArrow=none;startFill=0;startSize=8;endArrow=open;endFill=0;endSize=16;fontFamily=Verdana;fontSize=12;" parent="1" source="39150e848f15840c-10" target="39150e848f15840c-6" edge="1">
          <mxGeometry relative="1" as="geometry" />
        </mxCell>
        <mxCell id="39150e848f15840c-15" style="edgeStyle=orthogonalEdgeStyle;rounded=0;html=1;labelBackgroundColor=none;startArrow=none;startFill=0;startSize=8;endArrow=open;endFill=0;endSize=16;fontFamily=Verdana;fontSize=12;dashed=1;" parent="1" source="39150e848f15840c-5" target="39150e848f15840c-4" edge="1">
          <mxGeometry relative="1" as="geometry">
            <Array as="points">
              <mxPoint x="910" y="150" />
              <mxPoint x="775" y="150" />
            </Array>
          </mxGeometry>
        </mxCell>
        <mxCell id="OmvGsxAvd5trjXdj3R8x-29" style="edgeStyle=orthogonalEdgeStyle;rounded=0;orthogonalLoop=1;jettySize=auto;html=1;entryX=1;entryY=0.5;entryDx=0;entryDy=0;" parent="1" source="OmvGsxAvd5trjXdj3R8x-3" target="OmvGsxAvd5trjXdj3R8x-26" edge="1">
          <mxGeometry relative="1" as="geometry" />
        </mxCell>
        <mxCell id="OmvGsxAvd5trjXdj3R8x-3" value="«interface»&lt;br&gt;&lt;b&gt;HVAC_Task();&lt;/b&gt;" style="html=1;rounded=0;shadow=0;comic=0;labelBackgroundColor=none;strokeWidth=1;fontFamily=Verdana;fontSize=12;align=center;" parent="1" vertex="1">
          <mxGeometry x="670" y="165" width="110" height="50" as="geometry" />
        </mxCell>
        <mxCell id="OmvGsxAvd5trjXdj3R8x-4" style="edgeStyle=orthogonalEdgeStyle;rounded=0;html=1;labelBackgroundColor=none;startArrow=none;startFill=0;startSize=8;endArrow=open;endFill=0;endSize=16;fontFamily=Verdana;fontSize=12;dashed=1;entryX=1;entryY=0.5;entryDx=0;entryDy=0;" parent="1" source="39150e848f15840c-5" target="OmvGsxAvd5trjXdj3R8x-3" edge="1">
          <mxGeometry relative="1" as="geometry">
            <Array as="points">
              <mxPoint x="920" y="160" />
              <mxPoint x="840" y="160" />
              <mxPoint x="840" y="190" />
            </Array>
            <mxPoint x="920" y="120" as="sourcePoint" />
            <mxPoint x="785" y="130" as="targetPoint" />
          </mxGeometry>
        </mxCell>
        <mxCell id="OmvGsxAvd5trjXdj3R8x-5" value="Temprature" style="shape=component;align=left;spacingLeft=36;rounded=0;shadow=0;comic=0;labelBackgroundColor=none;strokeWidth=1;fontFamily=Verdana;fontSize=12;html=1;" parent="1" vertex="1">
          <mxGeometry x="1170" y="50" width="120" height="60" as="geometry" />
        </mxCell>
        <mxCell id="OmvGsxAvd5trjXdj3R8x-16" style="edgeStyle=orthogonalEdgeStyle;rounded=0;orthogonalLoop=1;jettySize=auto;html=1;entryX=0.5;entryY=0;entryDx=0;entryDy=0;" parent="1" source="OmvGsxAvd5trjXdj3R8x-6" target="OmvGsxAvd5trjXdj3R8x-9" edge="1">
          <mxGeometry relative="1" as="geometry" />
        </mxCell>
        <mxCell id="OmvGsxAvd5trjXdj3R8x-6" value="«interface»&lt;br&gt;&lt;b&gt;Get_current_Temp();&lt;/b&gt;" style="html=1;rounded=0;shadow=0;comic=0;labelBackgroundColor=none;strokeWidth=1;fontFamily=Verdana;fontSize=12;align=center;" parent="1" vertex="1">
          <mxGeometry x="1020" y="130" width="140" height="50" as="geometry" />
        </mxCell>
        <mxCell id="OmvGsxAvd5trjXdj3R8x-8" style="edgeStyle=orthogonalEdgeStyle;rounded=0;html=1;labelBackgroundColor=none;startArrow=none;startFill=0;startSize=8;endArrow=open;endFill=0;endSize=16;fontFamily=Verdana;fontSize=12;dashed=1;entryX=1;entryY=0.5;entryDx=0;entryDy=0;" parent="1" target="OmvGsxAvd5trjXdj3R8x-6" edge="1">
          <mxGeometry relative="1" as="geometry">
            <Array as="points">
              <mxPoint x="1260" y="160" />
              <mxPoint x="1180" y="160" />
              <mxPoint x="1180" y="155" />
            </Array>
            <mxPoint x="1260" y="110" as="sourcePoint" />
            <mxPoint x="1160" y="190" as="targetPoint" />
          </mxGeometry>
        </mxCell>
        <mxCell id="OmvGsxAvd5trjXdj3R8x-9" value="" style="ellipse;whiteSpace=wrap;html=1;rounded=0;shadow=0;comic=0;labelBackgroundColor=none;strokeWidth=1;fontFamily=Verdana;fontSize=12;align=center;" parent="1" vertex="1">
          <mxGeometry x="980" y="195" width="20" height="20" as="geometry" />
        </mxCell>
        <mxCell id="OmvGsxAvd5trjXdj3R8x-11" value="&lt;font style=&quot;font-size: 36px;&quot; color=&quot;#ffffff&quot;&gt;Application Wrapper&lt;/font&gt;" style="rounded=0;whiteSpace=wrap;html=1;fillColor=#333333;shadow=1;" parent="1" vertex="1">
          <mxGeometry x="180" y="320" width="2230" height="30" as="geometry" />
        </mxCell>
        <mxCell id="OmvGsxAvd5trjXdj3R8x-18" value="DB" style="verticalAlign=top;align=left;spacingTop=8;spacingLeft=2;spacingRight=12;shape=cube;size=10;direction=south;fontStyle=4;html=1;rounded=0;shadow=0;comic=0;labelBackgroundColor=none;strokeWidth=1;fontFamily=Verdana;fontSize=12;fillColor=#FFD966;" parent="1" vertex="1">
          <mxGeometry x="700" y="425" width="260" height="145" as="geometry" />
        </mxCell>
        <mxCell id="OmvGsxAvd5trjXdj3R8x-20" style="rounded=0;orthogonalLoop=1;jettySize=auto;html=1;entryX=1;entryY=0.5;entryDx=0;entryDy=0;endSize=16;dashed=1;endArrow=open;endFill=0;" parent="1" source="OmvGsxAvd5trjXdj3R8x-19" target="OmvGsxAvd5trjXdj3R8x-9" edge="1">
          <mxGeometry relative="1" as="geometry" />
        </mxCell>
        <mxCell id="OmvGsxAvd5trjXdj3R8x-19" value="DB_Mng" style="shape=component;align=left;spacingLeft=36;rounded=0;shadow=0;comic=0;labelBackgroundColor=none;strokeWidth=1;fontFamily=Verdana;fontSize=12;html=1;" parent="1" vertex="1">
          <mxGeometry x="800" y="460" width="120" height="60" as="geometry" />
        </mxCell>
        <mxCell id="OmvGsxAvd5trjXdj3R8x-21" style="rounded=0;orthogonalLoop=1;jettySize=auto;html=1;endSize=16;dashed=1;endArrow=open;endFill=0;exitX=0;exitY=0.3;exitDx=0;exitDy=0;entryX=0.5;entryY=1;entryDx=0;entryDy=0;" parent="1" source="OmvGsxAvd5trjXdj3R8x-19" target="39150e848f15840c-6" edge="1">
          <mxGeometry relative="1" as="geometry">
            <mxPoint x="824" y="470" as="sourcePoint" />
            <mxPoint x="410" y="245" as="targetPoint" />
          </mxGeometry>
        </mxCell>
        <mxCell id="OmvGsxAvd5trjXdj3R8x-23" value="Scheduler" style="shape=component;align=left;spacingLeft=36;rounded=0;shadow=0;comic=0;labelBackgroundColor=none;strokeWidth=1;fontFamily=Verdana;fontSize=12;html=1;" parent="1" vertex="1">
          <mxGeometry x="140" y="460" width="120" height="60" as="geometry" />
        </mxCell>
        <mxCell id="OmvGsxAvd5trjXdj3R8x-27" value="" style="edgeStyle=none;rounded=0;html=1;dashed=1;labelBackgroundColor=none;startArrow=none;startFill=0;startSize=8;endArrow=open;endFill=0;endSize=16;fontFamily=Verdana;fontSize=12;entryX=0;entryY=1;entryDx=0;entryDy=0;" parent="1" source="OmvGsxAvd5trjXdj3R8x-23" target="OmvGsxAvd5trjXdj3R8x-26" edge="1">
          <mxGeometry relative="1" as="geometry">
            <mxPoint x="215" y="460" as="sourcePoint" />
            <mxPoint x="320" y="250" as="targetPoint" />
          </mxGeometry>
        </mxCell>
        <mxCell id="OmvGsxAvd5trjXdj3R8x-26" value="" style="ellipse;whiteSpace=wrap;html=1;rounded=0;shadow=0;comic=0;labelBackgroundColor=none;strokeWidth=1;fontFamily=Verdana;fontSize=12;align=center;" parent="1" vertex="1">
          <mxGeometry x="570" y="200" width="20" height="20" as="geometry" />
        </mxCell>
        <mxCell id="OmvGsxAvd5trjXdj3R8x-31" value="Data_Equilizer" style="verticalAlign=top;align=left;spacingTop=8;spacingLeft=2;spacingRight=12;shape=cube;size=10;direction=south;fontStyle=4;html=1;rounded=0;shadow=0;comic=0;labelBackgroundColor=none;strokeWidth=1;fontFamily=Verdana;fontSize=12;fillColor=#FF0080;" parent="1" vertex="1">
          <mxGeometry x="1040" y="425" width="260" height="215" as="geometry" />
        </mxCell>
        <mxCell id="OmvGsxAvd5trjXdj3R8x-32" value="Diag_H" style="verticalAlign=top;align=left;spacingTop=8;spacingLeft=2;spacingRight=12;shape=cube;size=10;direction=south;fontStyle=4;html=1;rounded=0;shadow=0;comic=0;labelBackgroundColor=none;strokeWidth=1;fontFamily=Verdana;fontSize=12;fillColor=#FFD966;" parent="1" vertex="1">
          <mxGeometry x="1340" y="425" width="260" height="215" as="geometry" />
        </mxCell>
        <mxCell id="OmvGsxAvd5trjXdj3R8x-33" value="Error_H" style="verticalAlign=top;align=left;spacingTop=8;spacingLeft=2;spacingRight=12;shape=cube;size=10;direction=south;fontStyle=4;html=1;rounded=0;shadow=0;comic=0;labelBackgroundColor=none;strokeWidth=1;fontFamily=Verdana;fontSize=12;fillColor=#FFD966;" parent="1" vertex="1">
          <mxGeometry x="1640" y="425" width="260" height="215" as="geometry" />
        </mxCell>
        <mxCell id="OmvGsxAvd5trjXdj3R8x-34" value="Temp_Sensor_H" style="verticalAlign=top;align=left;spacingTop=8;spacingLeft=2;spacingRight=12;shape=cube;size=10;direction=south;fontStyle=4;html=1;rounded=0;shadow=0;comic=0;labelBackgroundColor=none;strokeWidth=1;fontFamily=Verdana;fontSize=12;fillColor=#FFD966;" parent="1" vertex="1">
          <mxGeometry x="1970" y="425" width="260" height="215" as="geometry" />
        </mxCell>
        <mxCell id="OmvGsxAvd5trjXdj3R8x-35" value="Temp_Eq" style="shape=component;align=left;spacingLeft=36;rounded=0;shadow=0;comic=0;labelBackgroundColor=none;strokeWidth=1;fontFamily=Verdana;fontSize=12;html=1;" parent="1" vertex="1">
          <mxGeometry x="1150" y="460" width="120" height="60" as="geometry" />
        </mxCell>
        <mxCell id="OmvGsxAvd5trjXdj3R8x-36" value="HVAC_Diag" style="shape=component;align=left;spacingLeft=36;rounded=0;shadow=0;comic=0;labelBackgroundColor=none;strokeWidth=1;fontFamily=Verdana;fontSize=12;html=1;" parent="1" vertex="1">
          <mxGeometry x="1460" y="460" width="120" height="60" as="geometry" />
        </mxCell>
        <mxCell id="OmvGsxAvd5trjXdj3R8x-37" value="HVAC_ER" style="shape=component;align=left;spacingLeft=36;rounded=0;shadow=0;comic=0;labelBackgroundColor=none;strokeWidth=1;fontFamily=Verdana;fontSize=12;html=1;" parent="1" vertex="1">
          <mxGeometry x="1750" y="460" width="120" height="60" as="geometry" />
        </mxCell>
        <mxCell id="OmvGsxAvd5trjXdj3R8x-38" value="Temp_Sensor" style="shape=component;align=left;spacingLeft=36;rounded=0;shadow=0;comic=0;labelBackgroundColor=none;strokeWidth=1;fontFamily=Verdana;fontSize=12;html=1;" parent="1" vertex="1">
          <mxGeometry x="2070" y="460" width="120" height="60" as="geometry" />
        </mxCell>
        <mxCell id="OmvGsxAvd5trjXdj3R8x-39" value="«interface»&lt;br&gt;&lt;b&gt;EQ_Temp_validation()&lt;/b&gt;;" style="html=1;rounded=0;shadow=0;comic=0;labelBackgroundColor=none;strokeWidth=1;fontFamily=Verdana;fontSize=12;align=center;" parent="1" vertex="1">
          <mxGeometry x="1060" y="540" width="160" height="50" as="geometry" />
        </mxCell>
        <mxCell id="OmvGsxAvd5trjXdj3R8x-40" value="«interface»&lt;br&gt;&lt;b&gt;DIAG_set_HVAC_Diag()&lt;/b&gt;;" style="html=1;rounded=0;shadow=0;comic=0;labelBackgroundColor=none;strokeWidth=1;fontFamily=Verdana;fontSize=12;align=center;" parent="1" vertex="1">
          <mxGeometry x="1360" y="540" width="180" height="50" as="geometry" />
        </mxCell>
        <mxCell id="OmvGsxAvd5trjXdj3R8x-41" value="«interface»&lt;br&gt;&lt;b&gt;ER_Set_HVAC_Er()&lt;/b&gt;;" style="html=1;rounded=0;shadow=0;comic=0;labelBackgroundColor=none;strokeWidth=1;fontFamily=Verdana;fontSize=12;align=center;" parent="1" vertex="1">
          <mxGeometry x="1660" y="540" width="170" height="50" as="geometry" />
        </mxCell>
        <mxCell id="OmvGsxAvd5trjXdj3R8x-42" value="«interface»&lt;br&gt;&lt;b&gt;SENSOR_H_get_temp()&lt;/b&gt;;" style="html=1;rounded=0;shadow=0;comic=0;labelBackgroundColor=none;strokeWidth=1;fontFamily=Verdana;fontSize=12;align=center;" parent="1" vertex="1">
          <mxGeometry x="1980" y="540" width="180" height="50" as="geometry" />
        </mxCell>
        <mxCell id="OmvGsxAvd5trjXdj3R8x-43" style="rounded=0;orthogonalLoop=1;jettySize=auto;html=1;entryX=0.5;entryY=0;entryDx=0;entryDy=0;dashed=1;endArrow=open;endFill=0;endSize=16;" parent="1" source="OmvGsxAvd5trjXdj3R8x-5" target="OmvGsxAvd5trjXdj3R8x-42" edge="1">
          <mxGeometry relative="1" as="geometry" />
        </mxCell>
        <mxCell id="OmvGsxAvd5trjXdj3R8x-44" style="rounded=0;orthogonalLoop=1;jettySize=auto;html=1;entryX=0.25;entryY=0;entryDx=0;entryDy=0;dashed=1;endArrow=open;endFill=0;endSize=16;exitX=1;exitY=0.617;exitDx=0;exitDy=0;exitPerimeter=0;" parent="1" source="39150e848f15840c-5" target="OmvGsxAvd5trjXdj3R8x-41" edge="1">
          <mxGeometry relative="1" as="geometry">
            <mxPoint x="1295" y="120" as="sourcePoint" />
            <mxPoint x="2080" y="550" as="targetPoint" />
          </mxGeometry>
        </mxCell>
        <mxCell id="OmvGsxAvd5trjXdj3R8x-45" style="rounded=0;orthogonalLoop=1;jettySize=auto;html=1;entryX=0.5;entryY=0;entryDx=0;entryDy=0;dashed=1;endArrow=open;endFill=0;endSize=16;exitX=0.75;exitY=1;exitDx=0;exitDy=0;" parent="1" source="39150e848f15840c-5" target="OmvGsxAvd5trjXdj3R8x-40" edge="1">
          <mxGeometry relative="1" as="geometry">
            <mxPoint x="1010" y="97" as="sourcePoint" />
            <mxPoint x="1713" y="550" as="targetPoint" />
          </mxGeometry>
        </mxCell>
        <mxCell id="OmvGsxAvd5trjXdj3R8x-46" style="rounded=0;orthogonalLoop=1;jettySize=auto;html=1;entryX=0.25;entryY=0;entryDx=0;entryDy=0;dashed=1;endArrow=open;endFill=0;endSize=16;exitX=0.5;exitY=1;exitDx=0;exitDy=0;" parent="1" source="OmvGsxAvd5trjXdj3R8x-5" target="OmvGsxAvd5trjXdj3R8x-39" edge="1">
          <mxGeometry relative="1" as="geometry">
            <mxPoint x="1295" y="120" as="sourcePoint" />
            <mxPoint x="2080" y="550" as="targetPoint" />
          </mxGeometry>
        </mxCell>
        <mxCell id="EIISU18rdqM718QjcKau-1" value="Actuators_sys" style="verticalAlign=top;align=left;spacingTop=8;spacingLeft=2;spacingRight=12;shape=cube;size=10;direction=south;fontStyle=4;html=1;rounded=0;shadow=0;comic=0;labelBackgroundColor=none;strokeWidth=1;fontFamily=Verdana;fontSize=12;fillColor=#FFD966;" vertex="1" parent="1">
          <mxGeometry x="2330" y="425" width="260" height="215" as="geometry" />
        </mxCell>
        <mxCell id="EIISU18rdqM718QjcKau-2" value="Heating_sys" style="shape=component;align=left;spacingLeft=36;rounded=0;shadow=0;comic=0;labelBackgroundColor=none;strokeWidth=1;fontFamily=Verdana;fontSize=12;html=1;" vertex="1" parent="1">
          <mxGeometry x="2440" y="467.5" width="120" height="60" as="geometry" />
        </mxCell>
        <mxCell id="EIISU18rdqM718QjcKau-3" value="Cooling_sys" style="shape=component;align=left;spacingLeft=36;rounded=0;shadow=0;comic=0;labelBackgroundColor=none;strokeWidth=1;fontFamily=Verdana;fontSize=12;html=1;" vertex="1" parent="1">
          <mxGeometry x="2440" y="540" width="120" height="60" as="geometry" />
        </mxCell>
        <mxCell id="EIISU18rdqM718QjcKau-4" style="rounded=0;orthogonalLoop=1;jettySize=auto;html=1;entryX=0;entryY=0.3;entryDx=0;entryDy=0;dashed=1;dashPattern=8 8;endArrow=open;endFill=0;endSize=16;" edge="1" parent="1" source="39150e848f15840c-5" target="EIISU18rdqM718QjcKau-2">
          <mxGeometry relative="1" as="geometry" />
        </mxCell>
        <mxCell id="EIISU18rdqM718QjcKau-5" style="rounded=0;orthogonalLoop=1;jettySize=auto;html=1;entryX=0;entryY=0.3;entryDx=0;entryDy=0;dashed=1;dashPattern=8 8;endArrow=open;endFill=0;endSize=16;" edge="1" parent="1" source="39150e848f15840c-5" target="EIISU18rdqM718QjcKau-3">
          <mxGeometry relative="1" as="geometry">
            <mxPoint x="1010" y="106" as="sourcePoint" />
            <mxPoint x="2450" y="496" as="targetPoint" />
          </mxGeometry>
        </mxCell>
      </root>
    </mxGraphModel>
  </diagram>
</mxfile>
